<svg xmlns="http://www.w3.org/2000/svg" width="1200" height="800" viewBox="0 0 1200 800" role="img" aria-label="Paralegal dashboard preview">
  <rect width="1200" height="800" rx="28" fill="#f5f7fa"/>
  <rect x="0" y="0" width="1200" height="84" fill="#111827"/>
  <rect x="40" y="110" width="240" height="640" rx="20" fill="#1f2937"/>
  <rect x="80" y="150" width="160" height="16" rx="8" fill="#d6dbe3" opacity="0.7"/>
  <rect x="80" y="190" width="120" height="12" rx="6" fill="#9ca3af" opacity="0.6"/>
  <rect x="80" y="230" width="140" height="12" rx="6" fill="#9ca3af" opacity="0.6"/>
  <rect x="80" y="270" width="110" height="12" rx="6" fill="#9ca3af" opacity="0.6"/>

  <rect x="320" y="110" width="840" height="160" rx="22" fill="#ffffff" stroke="#d9dde5" stroke-width="2"/>
  <rect x="360" y="150" width="200" height="18" rx="9" fill="#d6dbe3"/>
  <rect x="360" y="182" width="140" height="12" rx="6" fill="#b8bfcb"/>
  <rect x="650" y="150" width="180" height="18" rx="9" fill="#d6dbe3"/>
  <rect x="650" y="182" width="120" height="12" rx="6" fill="#b8bfcb"/>
  <rect x="890" y="150" width="200" height="18" rx="9" fill="#d6dbe3"/>
  <rect x="890" y="182" width="120" height="12" rx="6" fill="#b8bfcb"/>

  <rect x="320" y="300" width="520" height="200" rx="24" fill="#ffffff" stroke="#d9dde5" stroke-width="2"/>
  <rect x="360" y="330" width="140" height="14" rx="7" fill="#b8bfcb"/>
  <rect x="360" y="360" width="440" height="100" rx="14" fill="#eef1f6"/>
  <rect x="390" y="410" width="60" height="36" rx="8" fill="#b4975a"/>
  <rect x="470" y="390" width="60" height="56" rx="8" fill="#0f172a"/>
  <rect x="550" y="400" width="60" height="46" rx="8" fill="#b4975a"/>

  <rect x="870" y="300" width="290" height="200" rx="24" fill="#ffffff" stroke="#d9dde5" stroke-width="2"/>
  <rect x="900" y="330" width="120" height="14" rx="7" fill="#b8bfcb"/>
  <rect x="900" y="360" width="230" height="18" rx="9" fill="#eef1f6"/>
  <rect x="900" y="390" width="200" height="18" rx="9" fill="#eef1f6"/>
  <rect x="900" y="420" width="220" height="18" rx="9" fill="#eef1f6"/>

  <rect x="320" y="530" width="840" height="220" rx="24" fill="#ffffff" stroke="#d9dde5" stroke-width="2"/>
  <rect x="360" y="565" width="180" height="14" rx="7" fill="#b8bfcb"/>
  <rect x="360" y="600" width="760" height="18" rx="9" fill="#eef1f6"/>
  <rect x="360" y="635" width="680" height="18" rx="9" fill="#eef1f6"/>
  <rect x="360" y="670" width="600" height="18" rx="9" fill="#eef1f6"/>
</svg>
