<svg xmlns="http://www.w3.org/2000/svg" width="1200" height="800" viewBox="0 0 1200 800" role="img" aria-label="Attorney dashboard preview">
  <rect width="1200" height="800" rx="28" fill="#f8f6f1"/>
  <rect x="0" y="0" width="1200" height="90" fill="#0a0f14"/>
  <rect x="0" y="90" width="220" height="710" fill="#111827"/>
  <circle cx="60" cy="45" r="12" fill="#b4975a"/>
  <rect x="95" y="35" width="180" height="20" rx="10" fill="#f0ede6" opacity="0.8"/>

  <rect x="250" y="130" width="900" height="130" rx="18" fill="#ffffff" stroke="#e7e2d8" stroke-width="2"/>
  <rect x="280" y="160" width="210" height="24" rx="12" fill="#eae5db"/>
  <rect x="280" y="195" width="140" height="12" rx="6" fill="#d6d0c4"/>
  <rect x="540" y="160" width="210" height="24" rx="12" fill="#eae5db"/>
  <rect x="540" y="195" width="160" height="12" rx="6" fill="#d6d0c4"/>
  <rect x="800" y="160" width="210" height="24" rx="12" fill="#eae5db"/>
  <rect x="800" y="195" width="130" height="12" rx="6" fill="#d6d0c4"/>

  <rect x="250" y="290" width="560" height="230" rx="20" fill="#ffffff" stroke="#e7e2d8" stroke-width="2"/>
  <rect x="280" y="320" width="160" height="14" rx="7" fill="#d6d0c4"/>
  <rect x="280" y="360" width="500" height="120" rx="10" fill="#f2efe8"/>
  <rect x="310" y="420" width="40" height="60" rx="6" fill="#b4975a"/>
  <rect x="370" y="390" width="40" height="90" rx="6" fill="#1a2230"/>
  <rect x="430" y="410" width="40" height="70" rx="6" fill="#b4975a"/>
  <rect x="490" y="380" width="40" height="100" rx="6" fill="#1a2230"/>

  <rect x="840" y="290" width="310" height="230" rx="20" fill="#ffffff" stroke="#e7e2d8" stroke-width="2"/>
  <rect x="870" y="320" width="120" height="14" rx="7" fill="#d6d0c4"/>
  <circle cx="995" cy="410" r="60" fill="#f2efe8"/>
  <path d="M995 350a60 60 0 0 1 55 36" fill="none" stroke="#b4975a" stroke-width="12" stroke-linecap="round"/>

  <rect x="250" y="550" width="900" height="190" rx="22" fill="#ffffff" stroke="#e7e2d8" stroke-width="2"/>
  <rect x="280" y="585" width="200" height="16" rx="8" fill="#d6d0c4"/>
  <rect x="280" y="625" width="840" height="20" rx="10" fill="#f2efe8"/>
  <rect x="280" y="660" width="760" height="20" rx="10" fill="#f2efe8"/>
  <rect x="280" y="695" width="690" height="20" rx="10" fill="#f2efe8"/>
</svg>
