<svg xmlns="http://www.w3.org/2000/svg" viewBox="-12 0 7406 1050"><g fill="black"><path d="M171 257V715Q171 744 178.0 758.0Q185 772 204.5 777.5Q224 783 263 783H410Q458 783 480.0 749.5Q502 716 508 661Q508 658 513.5 658.5Q519 659 519 662Q516 687 513.0 721.5Q510 756 510 785Q510 800 495 800H37Q35 800 35.0 794.0Q35 788 37 788Q77 788 96.5 783.0Q116 778 123.0 763.0Q130 748 130 719V256Q130 227 123.0 212.5Q116 198 96.5 192.5Q77 187 37 187Q35 187 35.0 181.0Q35 175 37 175Q61 175 90.0 176.5Q119 178 150 178Q183 178 212.0 176.5Q241 175 264 175Q265 175 265.0 181.0Q265 187 264 187Q224 187 204.5 192.5Q185 198 178.0 213.0Q171 228 171 257Z"/><path d="M751 812Q693 812 655.0 784.5Q617 757 597.5 713.0Q578 669 578 620Q578 559 606.0 510.5Q634 462 680.5 433.5Q727 405 781 405Q838 405 864.5 437.0Q891 469 891 519Q891 532 888.5 537.5Q886 543 879 543H841Q847 480 820.0 452.5Q793 425 750 425Q691 425 658.5 468.0Q626 511 626 586Q626 641 644.0 686.0Q662 731 697.0 757.0Q732 783 782 783Q818 783 841.0 772.0Q864 761 884 748Q886 746 889.5 750.5Q893 755 891 758Q856 787 821.5 799.5Q787 812 751 812ZM618 544 617 533 846 529V543Z"/><path d="M1145 812Q1121 812 1100.0 804.5Q1079 797 1067.0 780.0Q1055 763 1055 734V493Q1055 467 1052.0 456.0Q1049 445 1038.0 441.5Q1027 438 1002 438Q1000 438 1000.0 432.5Q1000 427 1002 427Q1038 428 1059.5 407.0Q1081 386 1078 355Q1078 352 1085.5 352.0Q1093 352 1093 355V700Q1093 743 1113.5 764.0Q1134 785 1176 785Q1204 785 1224.5 776.5Q1245 768 1258 759Q1262 757 1264.5 761.5Q1267 766 1263 769Q1226 793 1199.5 802.5Q1173 812 1145 812ZM1234 461Q1195 451 1160.0 449.0Q1125 447 1086 447V427Q1124 427 1160.0 424.0Q1196 421 1236 417Q1240 417 1241.5 423.0Q1243 429 1243 439Q1243 446 1240.5 454.0Q1238 462 1234 461Z"/><path d="M1391 163Q1419 163 1434.5 183.5Q1450 204 1450 246Q1450 287 1433.5 323.0Q1417 359 1388 393Q1384 396 1381.0 392.5Q1378 389 1380 386Q1401 354 1406.5 327.5Q1412 301 1412 272Q1412 243 1402.5 225.5Q1393 208 1381 196L1420 189Q1421 206 1411.0 215.0Q1401 224 1387 224Q1372 224 1363.5 216.0Q1355 208 1355 193Q1355 179 1363.0 171.0Q1371 163 1391 163Z"/><path d="M1600 481Q1600 509 1613.5 528.0Q1627 547 1649.5 559.5Q1672 572 1695 584Q1721 595 1744.0 609.5Q1767 624 1782.0 643.5Q1797 663 1797 694Q1797 726 1781.0 752.5Q1765 779 1733.5 795.0Q1702 811 1658 811Q1635 811 1612.0 804.5Q1589 798 1566 779Q1564 777 1562.0 774.0Q1560 771 1560 767L1558 701Q1558 698 1563.5 697.5Q1569 697 1570 700Q1584 734 1601.0 754.5Q1618 775 1639.0 783.5Q1660 792 1688 792Q1726 792 1745.5 775.0Q1765 758 1762 723Q1761 694 1747.0 676.0Q1733 658 1711.5 646.5Q1690 635 1666 624Q1641 612 1618.5 598.5Q1596 585 1581.5 564.0Q1567 543 1567 511Q1567 474 1587.0 449.5Q1607 425 1637.0 412.5Q1667 400 1699 400Q1716 400 1734.0 404.0Q1752 408 1768 415Q1777 420 1777 426Q1777 440 1776.0 456.5Q1775 473 1775 491Q1775 493 1769.0 493.0Q1763 493 1763 491Q1763 468 1746.0 452.0Q1729 436 1706.0 428.5Q1683 421 1661 421Q1631 421 1615.5 436.0Q1600 451 1600 481Z"/><path d="M1888 629Q1885 629 1884.0 620.5Q1883 612 1883.5 602.5Q1884 593 1886 593L2147 546Q2150 545 2151.0 554.5Q2152 564 2151.0 572.5Q2150 581 2147 582Z"/><path d="M2369 715Q2369 745 2378.0 760.5Q2387 776 2415.0 782.0Q2443 788 2500 788Q2503 788 2503.0 794.0Q2503 800 2500 800Q2468 800 2430.5 799.0Q2393 798 2349 798Q2318 798 2288.5 799.0Q2259 800 2235 800Q2233 800 2233.0 794.0Q2233 788 2235 788Q2274 788 2294.0 783.0Q2314 778 2321.0 763.0Q2328 748 2328 719V256Q2328 227 2321.0 212.5Q2314 198 2294.0 192.5Q2274 187 2235 187Q2233 187 2233.0 181.0Q2233 175 2235 175Q2259 175 2288.0 176.5Q2317 178 2348 178Q2374 178 2410.5 175.0Q2447 172 2489 172Q2542 172 2586.5 189.0Q2631 206 2657.0 242.0Q2683 278 2682 336Q2682 389 2661.5 427.0Q2641 465 2608.5 489.5Q2576 514 2537.0 526.0Q2498 538 2461 538Q2447 538 2434.5 537.0Q2422 536 2411 533Q2407 532 2408.5 525.5Q2410 519 2413 520Q2422 522 2431.5 523.0Q2441 524 2449 524Q2496 524 2538.0 506.0Q2580 488 2606.0 450.5Q2632 413 2632 355Q2632 300 2609.0 261.5Q2586 223 2549.0 203.0Q2512 183 2467 183Q2428 183 2406.5 186.5Q2385 190 2377.0 205.0Q2369 220 2369 258Z"/><path d="M3051 806Q3047 808 3043 808Q3032 808 3024.0 787.5Q3016 767 3016 728V531Q3016 469 2994.5 446.0Q2973 423 2943 423Q2918 423 2901.0 433.5Q2884 444 2874.5 461.0Q2865 478 2860 493Q2859 499 2856.0 512.5Q2853 526 2834 526Q2821 526 2814.0 517.5Q2807 509 2807 500Q2807 485 2824.5 468.0Q2842 451 2868.5 436.5Q2895 422 2923.5 413.0Q2952 404 2977 404Q3018 404 3035.0 430.5Q3052 457 3052 501V692Q3052 729 3060.0 746.0Q3068 763 3090 763Q3110 763 3150 746Q3155 744 3157.0 749.5Q3159 755 3154 757ZM2877 807Q2841 807 2822.0 786.5Q2803 766 2803 740Q2803 726 2809.5 710.5Q2816 695 2836.0 679.0Q2856 663 2896 648L3026 599L3027 612L2897 661Q2873 670 2863.0 680.0Q2853 690 2850.5 700.0Q2848 710 2848 719Q2848 740 2862.0 759.0Q2876 778 2906 778Q2918 778 2931.0 774.0Q2944 770 2962 760L3033 720L3035 731L2959 777Q2933 793 2914.5 800.0Q2896 807 2877 807Z"/><path d="M3303 529 3299 520Q3336 473 3359.0 448.5Q3382 424 3398.5 414.5Q3415 405 3431 405Q3452 405 3471.5 415.0Q3491 425 3491 440Q3491 447 3484.5 454.0Q3478 461 3466 461Q3455 461 3447.0 455.0Q3439 449 3429.0 443.0Q3419 437 3401 437Q3392 437 3381.0 443.0Q3370 449 3352.0 468.5Q3334 488 3303 529ZM3215 800Q3212 800 3212.0 794.0Q3212 788 3215 788Q3258 788 3270.5 775.5Q3283 763 3283 719V517Q3283 482 3274.5 466.5Q3266 451 3246 451Q3236 451 3221.5 455.0Q3207 459 3188 466Q3184 467 3181.5 462.0Q3179 457 3183 455L3289 406Q3290 405 3293 405Q3300 405 3310.0 425.0Q3320 445 3320 483V719Q3320 749 3327.0 763.5Q3334 778 3356.0 783.0Q3378 788 3423 788Q3425 788 3425.0 794.0Q3425 800 3423 800Q3399 800 3367.5 799.0Q3336 798 3302 798Q3278 798 3255.0 799.0Q3232 800 3215 800Z"/><path d="M3850 806Q3846 808 3842 808Q3831 808 3823.0 787.5Q3815 767 3815 728V531Q3815 469 3793.5 446.0Q3772 423 3742 423Q3717 423 3700.0 433.5Q3683 444 3673.5 461.0Q3664 478 3659 493Q3658 499 3655.0 512.5Q3652 526 3633 526Q3620 526 3613.0 517.5Q3606 509 3606 500Q3606 485 3623.5 468.0Q3641 451 3667.5 436.5Q3694 422 3722.5 413.0Q3751 404 3776 404Q3817 404 3834.0 430.5Q3851 457 3851 501V692Q3851 729 3859.0 746.0Q3867 763 3889 763Q3909 763 3949 746Q3954 744 3956.0 749.5Q3958 755 3953 757ZM3676 807Q3640 807 3621.0 786.5Q3602 766 3602 740Q3602 726 3608.5 710.5Q3615 695 3635.0 679.0Q3655 663 3695 648L3825 599L3826 612L3696 661Q3672 670 3662.0 680.0Q3652 690 3649.5 700.0Q3647 710 3647 719Q3647 740 3661.0 759.0Q3675 778 3705 778Q3717 778 3730.0 774.0Q3743 770 3761 760L3832 720L3834 731L3758 777Q3732 793 3713.5 800.0Q3695 807 3676 807Z"/><path d="M4370 164Q4418 164 4450.5 168.0Q4483 172 4511.0 182.5Q4539 193 4572 210Q4577 214 4578.5 216.5Q4580 219 4581 232L4593 341Q4593 343 4587.0 344.5Q4581 346 4581 342Q4560 259 4509.5 218.0Q4459 177 4373 177Q4280 177 4211.5 214.0Q4143 251 4105.5 319.0Q4068 387 4068 479Q4068 543 4092.5 601.5Q4117 660 4160.0 704.5Q4203 749 4257.5 775.0Q4312 801 4374 801Q4463 801 4516.0 758.5Q4569 716 4587 637Q4588 634 4593.5 635.0Q4599 636 4599 638L4593 740Q4592 752 4590.0 755.0Q4588 758 4582 762Q4528 792 4483.0 802.5Q4438 813 4372 813Q4268 813 4187.5 771.5Q4107 730 4061.5 654.5Q4016 579 4016 479Q4016 407 4042.0 349.5Q4068 292 4116.0 250.0Q4164 208 4228.0 186.0Q4292 164 4370 164Z"/><path d="M4893 813Q4834 813 4791.0 784.0Q4748 755 4725.0 706.5Q4702 658 4702 602Q4702 550 4721.0 512.0Q4740 474 4771.0 449.5Q4802 425 4838.5 413.0Q4875 401 4911 401Q4970 401 5012.5 431.0Q5055 461 5078.0 508.0Q5101 555 5101 607Q5101 671 5072.0 717.0Q5043 763 4996.0 788.0Q4949 813 4893 813ZM4920 796Q4979 796 5016.0 758.5Q5053 721 5053 631Q5053 572 5031.5 524.5Q5010 477 4971.0 448.5Q4932 420 4878 420Q4817 420 4783.0 460.0Q4749 500 4749 575Q4749 632 4770.0 683.0Q4791 734 4829.5 765.0Q4868 796 4920 796Z"/><path d="M5467 800Q5464 800 5464.0 794.0Q5464 788 5467 788Q5510 788 5522.5 775.5Q5535 763 5535 719V547Q5535 485 5511.0 456.5Q5487 428 5437 428Q5397 428 5356.0 455.0Q5315 482 5284 530L5280 518Q5330 453 5372.5 427.0Q5415 401 5458 401Q5513 401 5542.5 429.5Q5572 458 5572 521V719Q5572 763 5583.5 775.5Q5595 788 5640 788Q5643 788 5643.0 794.0Q5643 800 5640 800Q5623 800 5600.5 799.0Q5578 798 5554 798Q5530 798 5507.0 799.0Q5484 800 5467 800ZM5198 800Q5195 800 5195.0 794.0Q5195 788 5198 788Q5241 788 5253.5 775.5Q5266 763 5266 719V517Q5266 482 5257.5 466.5Q5249 451 5229 451Q5219 451 5204.5 455.0Q5190 459 5171 466Q5167 467 5164.5 462.0Q5162 457 5166 455L5272 406Q5273 405 5276 405Q5283 405 5293.0 425.0Q5303 445 5303 483V719Q5303 763 5314.5 775.5Q5326 788 5371 788Q5374 788 5374.0 794.0Q5374 800 5371 800Q5354 800 5331.5 799.0Q5309 798 5285 798Q5261 798 5238.0 799.0Q5215 800 5198 800Z"/><path d="M5992 800Q5989 800 5989.0 794.0Q5989 788 5992 788Q6035 788 6047.5 775.5Q6060 763 6060 719V547Q6060 485 6036.0 456.5Q6012 428 5962 428Q5922 428 5881.0 455.0Q5840 482 5809 530L5805 518Q5855 453 5897.5 427.0Q5940 401 5983 401Q6038 401 6067.5 429.5Q6097 458 6097 521V719Q6097 763 6108.5 775.5Q6120 788 6165 788Q6168 788 6168.0 794.0Q6168 800 6165 800Q6148 800 6125.5 799.0Q6103 798 6079 798Q6055 798 6032.0 799.0Q6009 800 5992 800ZM5723 800Q5720 800 5720.0 794.0Q5720 788 5723 788Q5766 788 5778.5 775.5Q5791 763 5791 719V517Q5791 482 5782.5 466.5Q5774 451 5754 451Q5744 451 5729.5 455.0Q5715 459 5696 466Q5692 467 5689.5 462.0Q5687 457 5691 455L5797 406Q5798 405 5801 405Q5808 405 5818.0 425.0Q5828 445 5828 483V719Q5828 763 5839.5 775.5Q5851 788 5896 788Q5899 788 5899.0 794.0Q5899 800 5896 800Q5879 800 5856.5 799.0Q5834 798 5810 798Q5786 798 5763.0 799.0Q5740 800 5723 800Z"/><path d="M6412 812Q6354 812 6316.0 784.5Q6278 757 6258.5 713.0Q6239 669 6239 620Q6239 559 6267.0 510.5Q6295 462 6341.5 433.5Q6388 405 6442 405Q6499 405 6525.5 437.0Q6552 469 6552 519Q6552 532 6549.5 537.5Q6547 543 6540 543H6502Q6508 480 6481.0 452.5Q6454 425 6411 425Q6352 425 6319.5 468.0Q6287 511 6287 586Q6287 641 6305.0 686.0Q6323 731 6358.0 757.0Q6393 783 6443 783Q6479 783 6502.0 772.0Q6525 761 6545 748Q6547 746 6550.5 750.5Q6554 755 6552 758Q6517 787 6482.5 799.5Q6448 812 6412 812ZM6279 544 6278 533 6507 529V543Z"/><path d="M6845 812Q6777 812 6735.0 782.5Q6693 753 6673.5 707.5Q6654 662 6654 615Q6654 565 6672.5 526.0Q6691 487 6722.0 460.0Q6753 433 6790.0 419.0Q6827 405 6864 405Q6891 405 6916.5 412.5Q6942 420 6958.5 432.0Q6975 444 6975 458Q6975 469 6969.0 476.5Q6963 484 6952 484Q6940 484 6930.5 476.0Q6921 468 6916 461Q6903 445 6885.0 435.0Q6867 425 6833 425Q6768 425 6735.0 469.5Q6702 514 6702 587Q6702 638 6720.5 683.0Q6739 728 6777.0 756.5Q6815 785 6876 785Q6901 785 6930.0 777.0Q6959 769 6980 748Q6984 746 6987.5 750.0Q6991 754 6987 756Q6954 787 6919.0 799.5Q6884 812 6845 812Z"/><path d="M7223 812Q7199 812 7178.0 804.5Q7157 797 7145.0 780.0Q7133 763 7133 734V493Q7133 467 7130.0 456.0Q7127 445 7116.0 441.5Q7105 438 7080 438Q7078 438 7078.0 432.5Q7078 427 7080 427Q7116 428 7137.5 407.0Q7159 386 7156 355Q7156 352 7163.5 352.0Q7171 352 7171 355V700Q7171 743 7191.5 764.0Q7212 785 7254 785Q7282 785 7302.5 776.5Q7323 768 7336 759Q7340 757 7342.5 761.5Q7345 766 7341 769Q7304 793 7277.5 802.5Q7251 812 7223 812ZM7312 461Q7273 451 7238.0 449.0Q7203 447 7164 447V427Q7202 427 7238.0 424.0Q7274 421 7314 417Q7318 417 7319.5 423.0Q7321 429 7321 439Q7321 446 7318.5 454.0Q7316 462 7312 461Z"/></g></svg>